<?xml version="1.0" encoding="utf-8"?>
<svg viewBox="13.074 17.803 176.133 199.17" xmlns="http://www.w3.org/2000/svg">
  <defs>
    <clipPath id="clip_0">
      <path transform="matrix(1,0,0,-1,0,335.476)" d="M0 335.476H502.707V0H0Z"/>
    </clipPath>
  </defs>
  <g id="layer_1" data-name="" transform="matrix(1, 0, 0, 1, -140.4770965576172, 0)">
    <g clip-path="url(#clip_0)">
      <path transform="matrix(1,0,0,-1,241.1925,215.06652)" d="M0 0C-2.217 0-4.435 .573-6.421 1.721L-80.154 44.29C-84.128 46.585-86.576 50.825-86.576 55.413V140.552C-86.576 145.141-84.128 149.38-80.154 151.675L-6.421 194.244C-4.435 195.391-2.217 195.965 0 195.965 2.218 195.965 4.435 195.391 6.422 194.244L80.154 151.675C84.127 149.38 86.576 145.141 86.576 140.552V55.413C86.576 50.825 84.127 46.585 80.154 44.29L6.422 1.721C4.435 .573 2.218 0 0 0" fill="#ffde18"/>
      <path transform="matrix(1,0,0,-1,241.1925,201.5001)" d="M0 0C-.806 0-1.612 .209-2.335 .626L-71.397 40.499C-72.842 41.333-73.732 42.875-73.732 44.543V124.289C-73.732 125.958-72.842 127.499-71.397 128.333L-2.335 168.206C-1.612 168.624-.806 168.832 0 168.832 .807 168.832 1.613 168.624 2.335 168.206L71.396 128.333C72.842 127.499 73.732 125.958 73.732 124.289V44.543C73.732 42.875 72.842 41.333 71.396 40.499L2.335 .626C1.613 .209 .807 0 0 0" fill="#231f20"/>
      <path transform="matrix(1,0,0,-1,276.0612,131.78772)" d="M0 0-28.224-54.409 28.224-21.586Z" fill="#ffcb20"/>
      <path transform="matrix(1,0,0,-1,221.4982,123.70271)" d="M0 0V0L1.585 6.407Z" fill="#58595b"/>
      <path transform="matrix(1,0,0,-1,220.4967,110.60022)" d="M0 0-5.95 14.62-19.415-24.888-3.949-15.96Z" fill="#ffcb04"/>
      <path transform="matrix(1,0,0,-1,215.1749,132.10901)" d="M0 0-37.181-21.462-9.294-37.563Z" fill="#fcaf17"/>
      <path transform="matrix(1,0,0,-1,239.1329,52.4317)" d="M0 0-29.54-119.384 0-136.438Z" fill="#eb8d1c"/>
      <path transform="matrix(1,0,0,-1,243.2521,49.666627)" d="M0 0V-136.422L29.487-79.58Z" fill="#ffe82b"/>
    </g>
  </g>
</svg>