<?xml version="1.0" encoding="utf-8"?>
<svg viewBox="-0.835 12.24 686.58 210.297" xmlns="http://www.w3.org/2000/svg">
  <defs>
    <clipPath id="clip_0">
      <path transform="matrix(1,0,0,-1,0,335.476)" d="M0 335.476H502.707V0H0Z"/>
    </clipPath>
    <clipPath id="clip_2">
      <path transform="matrix(1,0,0,-1,0,335.476)" d="M0 335.476H502.707V0H0Z"/>
    </clipPath>
  </defs>
  <g id="layer_1" data-name="" transform="matrix(1, 0, 0, 1, -140.4770965576172, 0)">
    <g clip-path="url(#clip_0)">
      <path transform="matrix(1,0,0,-1,241.1925,215.06652)" d="M0 0C-2.217 0-4.435 .573-6.421 1.721L-80.154 44.29C-84.128 46.585-86.576 50.825-86.576 55.413V140.552C-86.576 145.141-84.128 149.38-80.154 151.675L-6.421 194.244C-4.435 195.391-2.217 195.965 0 195.965 2.218 195.965 4.435 195.391 6.422 194.244L80.154 151.675C84.127 149.38 86.576 145.141 86.576 140.552V55.413C86.576 50.825 84.127 46.585 80.154 44.29L6.422 1.721C4.435 .573 2.218 0 0 0" fill="#ffde18"/>
      <path transform="matrix(1,0,0,-1,241.1925,201.5001)" d="M0 0C-.806 0-1.612 .209-2.335 .626L-71.397 40.499C-72.842 41.333-73.732 42.875-73.732 44.543V124.289C-73.732 125.958-72.842 127.499-71.397 128.333L-2.335 168.206C-1.612 168.624-.806 168.832 0 168.832 .807 168.832 1.613 168.624 2.335 168.206L71.396 128.333C72.842 127.499 73.732 125.958 73.732 124.289V44.543C73.732 42.875 72.842 41.333 71.396 40.499L2.335 .626C1.613 .209 .807 0 0 0" fill="#231f20"/>
      <path transform="matrix(1,0,0,-1,276.0612,131.78772)" d="M0 0-28.224-54.409 28.224-21.586Z" fill="#ffcb20"/>
      <path transform="matrix(1,0,0,-1,221.4982,123.70271)" d="M0 0V0L1.585 6.407Z" fill="#58595b"/>
      <path transform="matrix(1,0,0,-1,220.4967,110.60022)" d="M0 0-5.95 14.62-19.415-24.888-3.949-15.96Z" fill="#ffcb04"/>
      <path transform="matrix(1,0,0,-1,215.1749,132.10901)" d="M0 0-37.181-21.462-9.294-37.563Z" fill="#fcaf17"/>
      <path transform="matrix(1,0,0,-1,239.1329,52.4317)" d="M0 0-29.54-119.384 0-136.438Z" fill="#eb8d1c"/>
      <path transform="matrix(1,0,0,-1,243.2521,49.666627)" d="M0 0V-136.422L29.487-79.58Z" fill="#ffe82b"/>
    </g>
  </g>
  <g id="layer_1" data-name="" transform="matrix(1, 0, 0, 1, 205.0131072998047, -157.16744995117188)">
    <g clip-path="url(#clip_2)">
      <path transform="matrix(1,0,0,-1,59.694,273.2872)" d="M0 0-2.514 9.577C-3.1 11.705-3.811 14.459-4.649 17.838-5.487 21.216-6.04 23.637-6.305 25.101-6.545 23.744-7.018 21.509-7.722 18.396-8.427 15.284-9.99 9.151-12.411 0ZM6.145-23.863 3.272-12.93H-15.683L-18.636-23.863H-35.955L-16.92 34.718H4.11L23.384-23.863Z" fill="#231f20"/>
      <path transform="matrix(1,0,0,-1,113.0641,251.13971)" d="M0 0C1.357 0 2.647-.106 3.871-.319L4.749-.479 3.352-15.204C2.075-14.885 .306-14.725-1.956-14.725-5.361-14.725-7.835-15.503-9.378-17.06-10.921-18.616-11.692-20.857-11.692-23.783V-46.011H-27.295V-.798H-15.683L-13.249-8.021H-12.49C-11.188-5.627-9.372-3.691-7.043-2.215-4.716-.738-2.368 0 0 0" fill="#231f20"/>
      <path transform="matrix(1,0,0,-1,176.0294,297.1505)" d="M0 0V24.581C0 27.641-.418 29.936-1.256 31.465-2.094 32.995-3.418 33.76-5.227 33.76-7.621 33.76-9.377 32.735-10.494 30.687-11.611 28.638-12.17 25.433-12.17 21.07V0H-27.813V24.581C-27.813 27.641-28.212 29.936-29.011 31.465-29.809 32.995-31.099 33.76-32.881 33.76-35.329 33.76-37.111 32.669-38.229 30.487-39.346 28.306-39.905 24.741-39.905 19.793V0H-55.508V45.213H-43.736L-41.78 39.626H-40.862C-39.666 41.701-37.929 43.283-35.655 44.375-33.38 45.465-30.793 46.011-27.893 46.011-21.375 46.011-16.799 44.028-14.166 40.064H-12.928C-11.652 41.927-9.875 43.383-7.602 44.435-5.326 45.485-2.82 46.011-.078 46.011 5.268 46.011 9.219 44.641 11.773 41.9 14.326 39.16 15.604 34.997 15.604 29.41V0Z" fill="#231f20"/>
      <path transform="matrix(1,0,0,-1,216.1603,286.9346)" d="M0 0C1.889 0 3.505 .599 4.849 1.796 6.191 2.992 6.864 4.549 6.864 6.465V9.977L3.272 9.816C-1.862 9.63-4.43 7.741-4.43 4.15-4.43 1.383-2.953 0 0 0M11.572-10.216 8.58-4.23H8.261C6.158-6.838 4.017-8.62 1.836-9.577-.346-10.535-3.166-11.015-6.624-11.015-10.881-11.015-14.233-9.737-16.681-7.184-19.128-4.629-20.352-1.038-20.352 3.591-20.352 8.406-18.676 11.991-15.323 14.346-11.972 16.7-7.117 18.023-.758 18.316L6.784 18.556V19.194C6.784 22.919 4.948 24.781 1.277 24.781-2.021 24.781-6.212 23.664-11.293 21.429L-15.803 31.725C-10.535 34.438-3.885 35.795 4.15 35.795 9.949 35.795 14.439 34.358 17.618 31.485 20.797 28.612 22.387 24.595 22.387 19.434V-10.216Z" fill="#231f20"/>
      <path transform="matrix(1,0,0,-1,256.7657,266.7423)" d="M0 0C0-4.63 1.609-6.944 4.829-6.944 6.318-6.944 7.469-6.372 8.28-5.229 9.092-4.085 9.498-2.368 9.498-.08 9.498 4.602 7.941 6.943 4.829 6.943 1.609 6.943 0 4.629 0 0M-4.908-36.035C-4.908-37.313-4.217-38.343-2.833-39.128-1.45-39.912 .399-40.305 2.714-40.305 6.491-40.305 9.518-39.832 11.792-38.888 14.067-37.943 15.204-36.727 15.204-35.237 15.204-34.04 14.512-33.195 13.129-32.703 11.746-32.21 9.764-31.965 7.184-31.965H1.078C-.599-31.965-2.015-32.357-3.172-33.142-4.329-33.927-4.908-34.891-4.908-36.035M29.171 14.805V7.263L22.986 4.987C23.837 3.444 24.263 1.648 24.263-.399 24.263-5.268 22.553-9.046 19.135-11.732 15.716-14.42 10.615-15.763 3.831-15.763 2.155-15.763 .824-15.657-.159-15.444-.532-16.136-.718-16.787-.718-17.399-.718-18.171-.093-18.763 1.157-19.175 2.408-19.588 4.044-19.794 6.066-19.794H13.568C23.704-19.794 28.772-24.063 28.772-32.604 28.772-38.11 26.424-42.393 21.729-45.452 17.033-48.512 10.441-50.042 1.956-50.042-4.456-50.042-9.397-48.971-12.869-46.829-16.341-44.688-18.077-41.608-18.077-37.592-18.077-32.19-14.725-28.706-8.021-27.136-9.404-26.552-10.608-25.606-11.632-24.303-12.656-23-13.169-21.709-13.169-20.432-13.169-19.022-12.783-17.778-12.012-16.701-11.24-15.623-9.631-14.34-7.183-12.85-9.524-11.813-11.366-10.19-12.71-7.981-14.054-5.773-14.725-3.087-14.725 .079-14.725 5.001-13.049 8.818-9.696 11.532-6.345 14.246-1.556 15.603 4.669 15.603 5.493 15.603 6.917 15.509 8.939 15.323 10.961 15.137 12.451 14.964 13.408 14.805Z" fill="#231f20"/>
      <path transform="matrix(1,0,0,-1,309.298,261.755)" d="M0 0C-1.836 0-3.372-.578-4.609-1.735-5.847-2.893-6.571-4.708-6.784-7.183H6.624C6.57-5.002 5.952-3.259 4.769-1.955 3.585-.651 1.995 0 0 0M.918-36.194C-6.611-36.194-12.457-34.192-16.621-30.188-20.784-26.185-22.866-20.484-22.866-13.089-22.866-5.453-20.937 .405-17.08 4.49-13.223 8.573-7.716 10.615-.559 10.615 6.251 10.615 11.513 8.84 15.224 5.288 18.935 1.736 20.791-3.379 20.791-10.056V-16.999H-7.104C-6.997-19.527-6.072-21.509-4.33-22.945-2.588-24.382-.213-25.101 2.793-25.101 5.533-25.101 8.054-24.841 10.355-24.322 12.656-23.803 15.15-22.919 17.838-21.668V-32.882C15.39-34.133 12.862-34.997 10.256-35.476 7.648-35.954 4.535-36.194 .918-36.194" fill="#231f20"/>
      <path transform="matrix(1,0,0,-1,354.4357,285.61824)" d="M0 0C2.5 0 4.263 .784 5.287 2.354 6.311 3.924 6.863 6.345 6.943 9.617V10.854C6.943 14.845 6.371 17.685 5.228 19.374 4.083 21.063 2.287 21.908-.16 21.908-2.209 21.908-3.799 20.943-4.929 19.016-6.06 17.086-6.625 14.34-6.625 10.774-6.625 7.263-6.053 4.589-4.909 2.754-3.766 .918-2.129 0 0 0M-6.386-12.331C-9.604-12.331-12.418-11.413-14.825-9.577-17.233-7.741-19.096-5.042-20.412-1.477-21.729 2.089-22.388 6.252-22.388 11.014-22.388 18.356-20.911 24.104-17.958 28.253-15.005 32.403-10.948 34.479-5.787 34.479-3.26 34.479-1.045 33.973 .857 32.962 2.759 31.951 4.495 30.249 6.065 27.854H6.385C5.879 31.393 5.626 34.931 5.626 38.469V50.561H21.349V-11.532H9.577L6.225-5.826H5.626C2.938-10.162-1.064-12.331-6.386-12.331" fill="#231f20"/>
      <path transform="matrix(1,0,0,-1,394.9708,274.4444)" d="M0 0C0-3.885 .519-6.844 1.557-8.879 2.594-10.914 4.336-11.932 6.784-11.932 9.204-11.932 10.914-10.914 11.912-8.879 12.909-6.844 13.408-3.885 13.408 0 13.408 3.857 12.902 6.771 11.892 8.739 10.881 10.708 9.151 11.692 6.704 11.692 4.31 11.692 2.594 10.715 1.557 8.759 .519 6.804 0 3.884 0 0M29.291 0C29.291-7.396 27.302-13.163 23.325-17.299 19.348-21.437 13.78-23.505 6.624-23.505-.239-23.505-5.7-21.39-9.757-17.159-13.814-12.93-15.843-7.21-15.843 0-15.843 7.369-13.854 13.095-9.877 17.18-5.899 21.263-.319 23.305 6.863 23.305 11.307 23.305 15.23 22.36 18.636 20.472 22.041 18.582 24.668 15.875 26.518 12.351 28.366 8.825 29.291 4.709 29.291 0" fill="#231f20"/>
      <path transform="matrix(1,0,0,-1,456.2999,297.1505)" d="M0 0V24.661C0 27.667-.433 29.936-1.297 31.465-2.162 32.995-3.552 33.76-5.468 33.76-8.101 33.76-10.004 32.709-11.174 30.607-12.345 28.505-12.93 24.9-12.93 19.793V0H-28.532V45.213H-16.761L-14.806 39.626H-13.888C-12.558 41.754-10.715 43.351-8.36 44.415-6.006 45.479-3.299 46.011-.239 46.011 4.762 46.011 8.652 44.561 11.433 41.661 14.212 38.761 15.603 34.678 15.603 29.41V0Z" fill="#231f20"/>
    </g>
  </g>
</svg>
